#N canvas 272 359 1519 655 12;
#N canvas 0 0 450 300 (subpatch) 0;
#X array table19 44103 float 0;
#X coords 0 1.02 44100 -1.02 200 130 1;
#X restore 1040 554 graph;
#X obj 1025 1178 hip~ 5;
#X floatatom 1050 838 0 0 0 0 - - -;
#X text 1131 846 <-- frequency (Hz.);
#X floatatom 1114 902 0 0 0 0 - - -;
#X obj 1114 931 * 441;
#X obj 1085 954 *~ 0;
#X obj 1085 977 +~ 1;
#X msg 1179 1077 bang;
#X text 1149 902 <-- chunk size (100ths of a second);
#X obj -29 906 adc~ 1;
#X obj -29 932 hip~ 5;
#X msg -11 960 bang;
#N canvas 0 0 450 300 (subpatch) 0;
#X array graph19 44100 float 0;
#X coords 0 44100 44100 0 200 130 1;
#X restore -59 655 graph;
#X obj 1025 1152 *~;
#X obj 1108 1072 line~;
#X obj 1108 1024 * 441;
#X floatatom 1108 1001 0 0 0 0 - - -;
#X obj 1108 1048 pack 0 100;
#X obj 1086 1106 +~;
#X text 1227 1077 <-- graph table index;
#X text -56 796 ----- 1 second ------;
#X obj -25 1027 loadbang;
#X text 11 1051 v-- re-read the original sample;
#X obj -15 1096 soundfiler;
#X text 1053 716 ---- 44103 samples ---;
#X obj -29 992 tabwrite~ table19;
#X text 68 1165 updated for Pd version 0.37;
#X msg -25 1122 \; graph19 ylabel 48000 0 44100;
#X obj 1024 899 -~ 0.5;
#X obj 1084 872 phasor~;
#X obj 1024 923 *~ 0.5;
#X obj 1024 946 cos~;
#X text 1142 1002 <-- read point (100ths of a second);
#X text 31 959 <-- record;
#X text 1021 809 ENVELOPING THE LOOPING SAMPLER;
#X obj 1085 1132 tabread4~ table19;
#X obj 1179 1103 tabwrite~ graph19;
#X msg -3 1066 read /home/joaquin/Downloads/200736__quartertone.wav
table19;
#X obj 1012 734 inlet;
#X obj 1261 805 inlet;
#X text 409 1043;
#X text 412 1143;
#X obj 1212 868 * 100;
#X obj 1080 776 * 100;
#X obj 1184 751 inlet;
#X obj 1035 1269 outlet~;
#X connect 1 0 46 0;
#X connect 2 0 30 0;
#X connect 4 0 5 0;
#X connect 5 0 6 1;
#X connect 6 0 7 0;
#X connect 7 0 19 0;
#X connect 8 0 37 0;
#X connect 10 0 11 0;
#X connect 11 0 26 0;
#X connect 12 0 26 0;
#X connect 14 0 1 0;
#X connect 15 0 19 1;
#X connect 16 0 18 0;
#X connect 17 0 16 0;
#X connect 18 0 15 0;
#X connect 19 0 36 0;
#X connect 19 0 37 0;
#X connect 22 0 28 0;
#X connect 22 0 38 0;
#X connect 29 0 31 0;
#X connect 30 0 6 0;
#X connect 30 0 29 0;
#X connect 31 0 32 0;
#X connect 32 0 14 0;
#X connect 36 0 14 1;
#X connect 38 0 24 0;
#X connect 39 0 44 0;
#X connect 40 0 43 0;
#X connect 43 0 4 0;
#X connect 43 0 5 0;
#X connect 44 0 2 0;
#X connect 44 0 30 0;
#X connect 45 0 44 1;
#X coords 0 200 1 1 300 500 1 1000 500;
